<svg xmlns="http://www.w3.org/2000/svg" width="7.523" height="16.195" viewBox="1188.71 5820.906 7.523 16.195"><path d="M1190.367 5829.067v7.83c0 .112.092.204.205.204h2.907a.204.204 0 0 0 .204-.204v-7.957h2.108a.204.204 0 0 0 .203-.187l.203-2.397a.204.204 0 0 0-.204-.222h-2.31v-1.7c0-.4.323-.722.722-.722h1.624a.204.204 0 0 0 .204-.204v-2.398a.204.204 0 0 0-.204-.204h-2.745a2.917 2.917 0 0 0-2.917 2.917v2.311h-1.453a.204.204 0 0 0-.204.204v2.398c0 .112.091.204.204.204h1.453v.127Z" fill="#1d1d1f" fill-rule="evenodd" data-name="Контур 18"/></svg>