<svg xmlns="http://www.w3.org/2000/svg" width="16.526" height="16.527" viewBox="1280.937 5820.768 16.526 16.527"><path d="M1294.534 5824.617a.959.959 0 1 1-1.918 0 .959.959 0 0 1 1.918 0m-1.194 4.298a4.032 4.032 0 0 1-4.027 4.027 4.032 4.032 0 0 1-4.027-4.027 4.032 4.032 0 0 1 4.027-4.027 4.032 4.032 0 0 1 4.027 4.027m-1.447 0a2.583 2.583 0 0 0-2.58-2.58 2.583 2.583 0 0 0-2.58 2.58 2.583 2.583 0 0 0 2.58 2.58 2.583 2.583 0 0 0 2.58-2.58m5.57-3.235c0-2.713-2.198-4.912-4.91-4.912h-6.704a4.912 4.912 0 0 0-4.912 4.912v6.703c0 2.712 2.2 4.912 4.912 4.912h6.703c2.713 0 4.912-2.2 4.912-4.912v-6.703Zm-1.611 6.629a3.374 3.374 0 0 1-3.374 3.373h-6.555a3.373 3.373 0 0 1-3.373-3.373v-6.555a3.373 3.373 0 0 1 3.373-3.374h6.555a3.374 3.374 0 0 1 3.374 3.374v6.555Z" fill="#1d1d1f" fill-rule="evenodd" data-name="Контур 20"/></svg>