<svg xmlns="http://www.w3.org/2000/svg" width="13.896" height="17.945" viewBox="1282.385 5899.057 13.896 17.945"><path d="M1288.196 5910.763c-.016.051-.03.094-.04.138-.66 2.583-.733 3.156-1.41 4.355-.324.57-.687 1.11-1.09 1.628-.045.058-.088.134-.178.115-.1-.022-.108-.11-.118-.19a13.9 13.9 0 0 1-.143-2.364c.035-1.032.162-1.386 1.493-6.98a.391.391 0 0 0-.031-.234c-.319-.86-.381-1.73-.103-2.615.602-1.907 2.765-2.054 3.143-.48.233.974-.383 2.249-.856 4.132-.392 1.555 1.437 2.66 3 1.525 1.443-1.046 2.002-3.553 1.896-5.33-.21-3.544-4.095-4.31-6.56-3.169-2.826 1.307-3.468 4.81-2.192 6.41.161.204.286.329.233.535-.082.32-.155.643-.244.963-.066.237-.264.323-.504.225-.47-.19-.862-.49-1.18-.884-1.084-1.342-1.394-3.995.039-6.242 1.587-2.49 4.54-3.496 7.235-3.19 3.22.365 5.255 2.565 5.636 5.06.173 1.137.049 3.94-1.547 5.922-1.836 2.277-4.812 2.428-6.185 1.03-.106-.107-.191-.232-.294-.36" fill="#1d1d1f" fill-rule="evenodd" data-name="Контур 24"/></svg>