<svg xmlns="http://www.w3.org/2000/svg" width="16.413" height="16.452" viewBox="19220.797 -16464.232 16.413 16.452"><g data-name="CompositeLayer"><path d="M19232.104-16454.974c-.335-.2-.77-.424-1.164-.262-.302.123-.495.597-.69.838-.101.124-.222.144-.376.082-1.134-.452-2.004-1.21-2.63-2.254-.106-.162-.087-.29.041-.44.19-.223.427-.476.478-.776.05-.3-.09-.65-.214-.918-.158-.342-.336-.829-.678-1.022-.315-.177-.728-.078-1.009.15-.483.394-.716 1.01-.71 1.622.003.174.024.348.065.515.097.404.284.78.493 1.138.158.27.33.532.516.784a7.959 7.959 0 0 0 2.236 2.077 6.79 6.79 0 0 0 1.395.663c.546.18 1.033.368 1.623.256.618-.117 1.227-.5 1.472-1.095a.948.948 0 0 0 .068-.558c-.084-.385-.605-.614-.916-.8" fill="#1d1d1f" fill-rule="evenodd" data-name="Контур 26"/><path d="M19229.081-16464.23c-4.48 0-8.125 3.645-8.125 8.126 0 1.37.351 2.72 1.019 3.925l-1.18 4.4 4.424-1.184a8.105 8.105 0 0 0 3.862.984c4.48 0 8.125-3.645 8.125-8.125s-3.645-8.126-8.125-8.126m0 14.715a6.576 6.576 0 0 1-3.364-.931l-.278-.167-2.471.662.658-2.456-.17-.28a6.57 6.57 0 0 1-.964-3.417 6.597 6.597 0 0 1 6.59-6.59 6.597 6.597 0 0 1 6.589 6.59 6.597 6.597 0 0 1-6.59 6.59" fill="#1d1d1f" fill-rule="evenodd" data-name="Контур 27"/></g></svg>