<svg xmlns="http://www.w3.org/2000/svg" width="18.306" height="18.654" viewBox="0 0 18.306 18.654">
  <g id="Сгруппировать_13" data-name="Сгруппировать 13" transform="translate(0.5 0.5)">
    <path id="Контур_11" data-name="Контур 11" d="M17.806,18.538H.5a.5.5,0,0,1-.5-.5V17.33a9.153,9.153,0,1,1,18.306,0v.708A.5.5,0,0,1,17.806,18.538ZM1,17.538H17.306V17.33A8.153,8.153,0,1,0,1,17.33Z" transform="translate(-0.5 -0.384)" fill="#1d1d1f"/>
    <path id="Контур_12" data-name="Контур 12" d="M8.4,10.54A4.611,4.611,0,0,1,3.834,5.893,4.611,4.611,0,0,1,8.4,1.247a4.612,4.612,0,0,1,4.565,4.646A4.612,4.612,0,0,1,8.4,10.54Zm0-8.293A3.61,3.61,0,0,0,4.834,5.893,3.61,3.61,0,0,0,8.4,9.54a3.611,3.611,0,0,0,3.565-3.646A3.611,3.611,0,0,0,8.4,2.247Z" transform="translate(0.254 -1.747)" fill="#1d1d1f"/>
  </g>
</svg>
