<svg xmlns="http://www.w3.org/2000/svg" width="19.661" height="18.677" viewBox="0 0 19.661 18.677">
  <path id="Контур_13" data-name="Контур 13" d="M68.11,19.905A.5.5,0,0,1,67.8,19.8c-9.7-7.57-9.986-12.638-9.29-14.985a4.923,4.923,0,0,1,4.2-3.562A5.118,5.118,0,0,1,67.591,3.5a6.737,6.737,0,0,1,.518.892,6.737,6.737,0,0,1,.518-.892,5.118,5.118,0,0,1,4.881-2.252,4.923,4.923,0,0,1,4.2,3.562c.7,2.347.414,7.415-9.29,14.985A.5.5,0,0,1,68.11,19.905ZM63.276,2.228c-.156,0-.317.007-.479.021A3.915,3.915,0,0,0,59.471,5.1a7.29,7.29,0,0,0,1.036,5.492c1.41,2.552,3.967,5.3,7.6,8.178,3.636-2.876,6.193-5.627,7.6-8.178A7.29,7.29,0,0,0,76.748,5.1a3.915,3.915,0,0,0-3.325-2.85,4.1,4.1,0,0,0-3.954,1.8,5.909,5.909,0,0,0-.87,1.907.5.5,0,0,1-.489.4h0a.5.5,0,0,1-.488-.4,5.908,5.908,0,0,0-.87-1.906A4.04,4.04,0,0,0,63.276,2.228Z" transform="translate(-58.279 -1.228)" fill="#1d1d1f"/>
</svg>
