<svg xmlns="http://www.w3.org/2000/svg" width="18.306" height="20.147" viewBox="0 0 18.306 20.147">
  <g id="Сгруппировать_12" data-name="Сгруппировать 12" transform="translate(0.5 0.5)">
    <path id="Контур_14" data-name="Контур 14" d="M47.229,19.063H29.922a.5.5,0,0,1-.5-.537l.944-12.555a.5.5,0,0,1,.5-.463H46.284a.5.5,0,0,1,.5.463l.944,12.555a.5.5,0,0,1-.5.537Zm-16.767-1H46.69L45.821,6.508H31.33Z" transform="translate(-29.922 0.583)" fill="#1d1d1f"/>
    <path id="Контур_15" data-name="Контур 15" d="M42.191,9.316a.5.5,0,0,1-.5-.5v-3.9a3.828,3.828,0,1,0-7.653,0v3.9a.5.5,0,0,1-1,0v-3.9a4.827,4.827,0,1,1,9.653,0v3.9A.5.5,0,0,1,42.191,9.316Z" transform="translate(-29.211 -0.5)" fill="#161615"/>
  </g>
</svg>
