<svg xmlns="http://www.w3.org/2000/svg" width="18.624" height="18.881" viewBox="0 0 18.624 18.881">
  <path id="Контур_16" data-name="Контур 16" d="M132.133,14.593,129.616,12.8a1.912,1.912,0,0,0-1.112-.357,1.933,1.933,0,0,0-1.593.847l-.584.854a21.794,21.794,0,0,1-3.113-2.667A21.98,21.98,0,0,1,120.6,8.3l.836-.6a1.962,1.962,0,0,0,.8-1.278,2,2,0,0,0-.321-1.481L120.161,2.38a1.932,1.932,0,0,0-1.586-.857,1.787,1.787,0,0,0-.633.116,3.417,3.417,0,0,0-.655.328l-.347.249a2.89,2.89,0,0,0-.245.224A4.667,4.667,0,0,0,115.6,4.268c-.724,2.769,1.07,6.957,4.465,10.421C122.918,17.6,126.343,19.4,129,19.4h0a4.82,4.82,0,0,0,1.277-.162,4.537,4.537,0,0,0,1.793-1.114,2.806,2.806,0,0,0,.23-.266l.244-.355a3.6,3.6,0,0,0,.31-.651A1.969,1.969,0,0,0,132.133,14.593Z" transform="translate(-114.89 -1.023)" fill="#1d1d1f" stroke="#1d1d1f" stroke-linecap="round" stroke-linejoin="round" stroke-width="1"/>
</svg>
