<svg xmlns="http://www.w3.org/2000/svg" width="22.247" height="15.52" viewBox="0 0 22.247 15.52">
  <g id="Сгруппировать_10" data-name="Сгруппировать 10" transform="translate(0.5 0.5)">
    <path id="Прямоугольник_3" data-name="Прямоугольник 3" d="M1.207-.5H20.04a1.709,1.709,0,0,1,1.707,1.707V13.314a1.708,1.708,0,0,1-1.706,1.706H1.207A1.709,1.709,0,0,1-.5,13.313V1.207A1.709,1.709,0,0,1,1.207-.5ZM20.041,14.02a.707.707,0,0,0,.706-.706V1.207A.708.708,0,0,0,20.04.5H1.207A.708.708,0,0,0,.5,1.207V13.313a.708.708,0,0,0,.707.707Z" transform="translate(0)" fill="#1d1d1f"/>
    <path id="Контур_17" data-name="Контур 17" d="M149.789,12.156a1.909,1.909,0,0,1-1.252-.471l-9.217-7.953a.5.5,0,0,1,.653-.757l9.218,7.953a.907.907,0,0,0,1.2,0L159.6,2.977a.5.5,0,1,1,.653.757l-9.216,7.952A1.908,1.908,0,0,1,149.789,12.156Z" transform="translate(-139.166 -2.987)" fill="#1d1d1f"/>
  </g>
</svg>
