<svg xmlns="http://www.w3.org/2000/svg" width="18.312" height="18.661" viewBox="0 0 18.312 18.661">
  <g id="Сгруппировать_11" data-name="Сгруппировать 11" transform="translate(0.5 0.5)">
    <path id="Эллипс_1" data-name="Эллипс 1" d="M7.417-.5a8,8,0,0,1,7.917,8.066,8,8,0,0,1-7.917,8.066A8,8,0,0,1-.5,7.567,8,8,0,0,1,7.417-.5Zm0,15.133a7,7,0,0,0,6.917-7.066A7,7,0,0,0,7.417.5,7,7,0,0,0,.5,7.567,7,7,0,0,0,7.417,14.633Z" transform="translate(0)" fill="#1d1d1f"/>
    <path id="Линия_1" data-name="Линия 1" d="M4.65,5.245a.5.5,0,0,1-.357-.15L-.357.35A.5.5,0,0,1-.35-.357.5.5,0,0,1,.357-.35l4.65,4.745a.5.5,0,0,1-.357.85Z" transform="translate(12.662 12.917)" fill="#1d1d1f"/>
  </g>
</svg>
