<svg xmlns="http://www.w3.org/2000/svg" width="18.529" height="18.881" viewBox="0 0 18.529 18.881">
  <path id="Контур_16" data-name="Контур 16" d="M129.006,19.9h0c-2.791,0-6.352-1.864-9.294-4.865a18.8,18.8,0,0,1-3.879-5.624,8.332,8.332,0,0,1-.712-5.273,5.138,5.138,0,0,1,1.219-2.052,3.369,3.369,0,0,1,.289-.263l.022-.017L117,1.561l.021-.014a3.913,3.913,0,0,1,.749-.375,2.289,2.289,0,0,1,.809-.148,2.432,2.432,0,0,1,2,1.074l1.758,2.567a2.5,2.5,0,0,1,.4,1.85,2.458,2.458,0,0,1-1.005,1.6l-.436.311a22.611,22.611,0,0,0,2.281,2.7,22.579,22.579,0,0,0,2.63,2.315l.3-.434a2.417,2.417,0,0,1,3.406-.616l2.518,1.795a2.47,2.47,0,0,1,.906,2.841,4.1,4.1,0,0,1-.354.742l-.014.022-.244.355-.014.019a3.279,3.279,0,0,1-.269.312,5.01,5.01,0,0,1-2.02,1.248A5.317,5.317,0,0,1,129.006,19.9ZM117.244,2.614a2.407,2.407,0,0,0-.192.177,4.171,4.171,0,0,0-.965,1.6,7.373,7.373,0,0,0,.664,4.626,17.8,17.8,0,0,0,3.674,5.317c2.76,2.816,6.048,4.565,8.58,4.565h0a4.323,4.323,0,0,0,1.144-.144,4.042,4.042,0,0,0,1.568-.982,2.283,2.283,0,0,0,.182-.209l.229-.334a3.112,3.112,0,0,0,.26-.55A1.467,1.467,0,0,0,131.842,15l-2.517-1.794a1.415,1.415,0,0,0-.821-.264,1.433,1.433,0,0,0-1.18.63l-.584.854a.5.5,0,0,1-.7.13,22.138,22.138,0,0,1-3.187-2.73,22.629,22.629,0,0,1-2.674-3.25.5.5,0,0,1,.128-.682l.836-.6a1.466,1.466,0,0,0,.6-.956,1.5,1.5,0,0,0-.241-1.114l-1.758-2.567a1.433,1.433,0,0,0-1.173-.639,1.293,1.293,0,0,0-.457.084,2.926,2.926,0,0,0-.55.274Z" transform="translate(-114.943 -1.023)" fill="#1d1d1f"/>
</svg>
